<svg xmlns="http://www.w3.org/2000/svg" width="100px" height="102px" viewBox="-5 -5 110 112" version="1.1">
    <g id="surface1">
        <!-- CAMADA 1: Borda Branca (Fundo) - Tamanho 10 -->
        <path style="fill:none;stroke:#ffffff;stroke-width:10;stroke-linecap:round;stroke-linejoin:round;" 
              d="M 244.072953 0.140327 L 279.415336 46.606741 L 270.323344 54.721937 L 266.532133 58.733426 L 263.443852 62.675751 L 260.989359 66.571968 L 259.122563 70.410547 L 257.77432 74.2376 L 256.898539 78.064653 L 256.449125 81.91476 L 256.391508 85.834031 L 256.714164 89.833993 L 257.394047 93.903118 L 258.396586 98.064461 L 261.288969 106.617694 L 265.14932 115.424526 C 271.245219 127.885502 278.159281 139.896914 284.151469 152.403999 L 288.207719 162.052321 L 289.901664 166.95141 L 291.307523 171.896608 L 292.379203 176.910969 L 293.059086 181.994494 L 293.289555 187.124127 L 293.012992 192.21918 L 292.36768 197.049104 L 291.503422 201.590848 L 290.408695 205.902046 L 289.095023 210.01728 L 287.585453 213.913496 L 284.001664 221.071929 L 279.761039 227.434981 L 274.990336 233.014178 L 269.816312 237.867157 C 267.142875 239.999702 264.37725 242.016974 261.530961 243.895918 C 257.831937 246.132208 254.006156 248.172534 250.099711 250.00537 C 247.311039 251.215733 244.49932 252.36846 241.664555 253.440495 C 234.070609 256.16093 226.326859 258.39722 218.629203 260.841001 C 211.334867 262.962018 203.879203 264.437508 196.49268 266.224235 C 190.177836 267.814998 184.139555 269.647833 178.101273 272.14925 C 175.10518 273.49794 172.178227 275.008012 169.343461 276.679466 C 166.474125 278.500774 163.731547 280.518046 161.12725 282.719754 L 157.278422 286.431534 C 153.3835 290.754259 150.076273 295.457384 146.596195 300.148982 C 143.231352 295.445857 140.062406 290.719677 136.248148 286.373898 C 134.438969 284.494953 132.537602 282.708227 130.544047 281.013718 C 127.916703 278.973392 125.151078 277.094448 122.270219 275.411467 C 118.605766 273.451831 114.975883 271.826487 111.092484 270.350996 C 106.483109 268.725652 101.850688 267.411543 97.103031 266.224235 C 89.658891 264.449036 82.134086 262.973545 74.770609 260.841001 C 67.994828 258.696929 61.172953 256.702712 54.443266 254.408786 C 49.649516 252.70275 45.040141 250.823806 40.442289 248.65668 C 37.526859 247.181189 34.669047 245.590426 31.868852 243.895918 L 26.291508 240.034284 C 23.537406 237.832576 20.910062 235.49254 18.397953 233.014178 L 13.62725 227.434981 L 9.386625 221.071929 L 5.802836 213.913496 L 4.293266 210.01728 L 2.979594 205.902046 L 1.896391 201.590848 L 1.020609 197.049104 L 0.375297 192.21918 L 0.110258 187.124127 L 0.340727 181.994494 L 1.020609 176.910969 L 2.092289 171.896608 L 3.498148 166.95141 L 7.116508 157.210869 L 11.518461 147.654765 C 16.98057 136.842188 22.926664 126.306266 28.250492 115.424526 L 32.09932 106.617694 L 35.003227 98.064461 L 36.005766 93.903118 L 36.685648 89.833993 L 37.008305 85.834031 L 36.950688 81.91476 L 36.501273 78.064653 L 35.613969 74.2376 L 34.265727 70.410547 L 32.39893 66.571968 L 29.955961 62.675751 L 26.86768 58.733426 L 23.076469 54.721937 L 13.972953 46.606741 L 49.326859 0.140327 L 59.997563 6.768506 L 71.440336 13.143084 L 82.940727 18.595482 L 94.487211 23.125698 L 106.056742 26.745259 L 117.660844 29.454167 L 129.264945 31.252421 L 140.88057 32.151548 L 152.507719 32.151548 L 164.134867 31.252421 L 175.738969 29.454167 L 187.331547 26.745259 L 198.901078 23.125698 L 210.447563 18.595482 L 221.947953 13.143084 L 233.390727 6.768506 Z M 244.072953 0.140327 " transform="matrix(0.338983,0,0,0.33887,0.255593,0.214166)"/>
        
        <!-- CAMADA 2: Logo Original (Preto) -->
        <path style="fill-rule:evenodd;fill:rgb(0%,0%,0%);fill-opacity:1;stroke-width:0.216;stroke-linecap:butt;stroke-linejoin:miter;stroke:rgb(0%,0%,0%);stroke-opacity:1;stroke-miterlimit:2.613;" d="M 244.072953 0.140327 L 279.415336 46.606741 L 270.323344 54.721937 L 266.532133 58.733426 L 263.443852 62.675751 L 260.989359 66.571968 L 259.122563 70.410547 L 257.77432 74.2376 L 256.898539 78.064653 L 256.449125 81.91476 L 256.391508 85.834031 L 256.714164 89.833993 L 257.394047 93.903118 L 258.396586 98.06461 L 261.288969 106.617694 L 265.14932 115.424526 C 271.245219 127.885502 278.159281 139.896914 284.151469 152.403999 L 288.207719 162.052321 L 289.901664 166.95141 L 291.307523 171.896608 L 292.379203 176.910969 L 293.059086 181.994494 L 293.289555 187.124127 L 293.012992 192.21918 L 292.36768 197.049104 L 291.503422 201.590848 L 290.408695 205.902046 L 289.095023 210.01728 L 287.585453 213.913496 L 284.001664 221.071929 L 279.761039 227.434981 L 274.990336 233.014178 L 269.816312 237.867157 C 267.142875 239.999702 264.37725 242.016974 261.530961 243.895918 C 257.831937 246.132208 254.006156 248.172534 250.099711 250.00537 C 247.311039 251.215733 244.49932 252.36846 241.664555 253.440495 C 234.070609 256.16093 226.326859 258.39722 218.629203 260.841001 C 211.334867 262.962018 203.879203 264.437508 196.49268 266.224235 C 190.177836 267.814998 184.139555 269.647833 178.101273 272.14925 C 175.10518 273.49794 172.178227 275.008012 169.343461 276.679466 C 166.474125 278.500774 163.731547 280.518046 161.12725 282.719754 L 157.278422 286.431534 C 153.3835 290.754259 150.076273 295.457384 146.596195 300.148982 C 143.231352 295.445857 140.062406 290.719677 136.248148 286.373898 C 134.438969 284.494953 132.537602 282.708227 130.544047 281.013718 C 127.916703 278.973392 125.151078 277.094448 122.270219 275.411467 C 118.605766 273.451831 114.975883 271.826487 111.092484 270.350996 C 106.483109 268.725652 101.850688 267.411543 97.103031 266.224235 C 89.658891 264.449036 82.134086 262.973545 74.770609 260.841001 C 67.994828 258.696929 61.172953 256.702712 54.443266 254.408786 C 49.649516 252.70275 45.040141 250.823806 40.442289 248.65668 C 37.526859 247.181189 34.669047 245.590426 31.868852 243.895918 L 26.291508 240.034284 C 23.537406 237.832576 20.910062 235.49254 18.397953 233.014178 L 13.62725 227.434981 L 9.386625 221.071929 L 5.802836 213.913496 L 4.293266 210.01728 L 2.979594 205.902046 L 1.896391 201.590848 L 1.020609 197.049104 L 0.375297 192.21918 L 0.110258 187.124127 L 0.340727 181.994494 L 1.020609 176.910969 L 2.092289 171.896608 L 3.498148 166.95141 L 7.116508 157.210869 L 11.518461 147.654765 C 16.98057 136.842188 22.926664 126.306266 28.250492 115.424526 L 32.09932 106.617694 L 35.003227 98.064461 L 36.005766 93.903118 L 36.685648 89.833993 L 37.008305 85.834031 L 36.950688 81.91476 L 36.501273 78.064653 L 35.613969 74.2376 L 34.265727 70.410547 L 32.39893 66.571968 L 29.955961 62.675751 L 26.86768 58.733426 L 23.076469 54.721937 L 13.972953 46.606741 L 49.326859 0.140327 L 59.997563 6.768506 L 71.440336 13.143084 L 82.940727 18.595482 L 94.487211 23.125698 L 106.056742 26.745259 L 117.660844 29.454167 L 129.264945 31.252421 L 140.88057 32.151548 L 152.507719 32.151548 L 164.134867 31.252421 L 175.738969 29.454167 L 187.331547 26.745259 L 198.901078 23.125698 L 210.447563 18.595482 L 221.947953 13.143084 L 233.390727 6.768506 Z M 244.072953 0.140327 " transform="matrix(0.338983,0,0,0.33887,0.255593,0.214166)"/>
        
        <!-- CAMADA 3: Detalhes Brancos -->
        <path style="fill-rule:evenodd;fill:rgb(100%,100%,100%);fill-opacity:1;stroke-width:0.216;stroke-linecap:butt;stroke-linejoin:miter;stroke:rgb(0%,0%,0%);stroke-opacity:1;stroke-miterlimit:2.613;" d="M 11.195805 164.092648 C 26.118656 124.346631 68.547953 83.701487 22.569437 45.776778 L 50.882523 8.566759 C 101.72393 41.188925 155.469242 47.240741 207.393852 26.710678 Z M 11.195805 164.092648 " transform="matrix(0.338983,0,0,0.33887,0.255593,0.214166)"/>
        <path style=" stroke:none;fill-rule:evenodd;fill:rgb(0%,0%,0%);fill-opacity:1;" d="M 20.363281 31 C 16.605469 27.457031 16.433594 21.5 19.976562 17.742188 C 23.519531 13.984375 29.480469 13.8125 33.238281 17.355469 C 37 20.894531 37.167969 26.855469 33.625 30.613281 C 30.085938 34.371094 24.117188 34.546875 20.363281 31 Z M 20.363281 31 "/>
        <path style=" stroke:none;fill-rule:evenodd;fill:rgb(100%,100%,100%);fill-opacity:1;" d="M 31.175781 19.332031 C 30.675781 17.867188 30.671875 17.859375 30.160156 16.667969 C 30.003906 16.601562 29.84375 16.53125 29.683594 16.46875 C 29.054688 16.25 28.40625 16.097656 27.75 16.007812 C 27.355469 15.972656 26.957031 15.953125 26.5625 15.957031 C 26.179688 15.976562 25.816406 16.015625 25.457031 16.074219 C 24.820312 16.972656 24.808594 16.992188 24.109375 18.148438 C 24.835938 19.347656 24.835938 19.347656 25.664062 20.734375 C 27.527344 20.957031 27.527344 20.957031 29.378906 21.226562 C 30.332031 20.21875 30.332031 20.21875 31.175781 19.332031 Z M 34.125 20.429688 C 33.066406 20.035156 33.039062 20.023438 31.703125 19.640625 C 30.78125 20.648438 30.78125 20.648438 29.710938 21.796875 C 30.054688 23.488281 30.054688 23.488281 30.367188 25.191406 C 31.699219 25.9375 31.699219 25.9375 32.859375 26.609375 C 34.050781 25.808594 34.070312 25.796875 34.980469 25.058594 C 35.011719 24.683594 35.027344 24.316406 35.027344 23.9375 C 34.992188 23.277344 34.894531 22.621094 34.734375 21.980469 C 34.621094 21.597656 34.488281 21.222656 34.335938 20.851562 C 34.265625 20.707031 34.199219 20.566406 34.125 20.429688 Z M 32.484375 29.929688 C 32.585938 28.628906 32.585938 28.628906 32.589844 27.132812 C 31.425781 26.503906 31.425781 26.503906 30.117188 25.789062 C 28.480469 26.71875 28.480469 26.71875 26.8125 27.605469 C 26.433594 29.25 26.433594 29.25 26.097656 30.6875 C 27.25 31.523438 27.25 31.523438 28.292969 32.164062 L 28.371094 32.25 C 28.453125 32.234375 28.53125 32.21875 28.613281 32.203125 C 29.128906 32.078125 29.636719 31.910156 30.128906 31.707031 C 30.742188 31.421875 31.324219 31.078125 31.863281 30.671875 C 32.082031 30.492188 32.296875 30.304688 32.5 30.109375 C 32.496094 30.050781 32.488281 29.988281 32.484375 29.929688 Z M 22.898438 31.375 C 24.121094 31.039062 24.121094 31.039062 25.515625 30.53125 C 25.832031 29.082031 25.832031 29.082031 26.199219 27.4375 C 24.851562 26.199219 24.851562 26.199219 23.535156 24.929688 C 21.773438 25.21875 21.773438 25.21875 20.257812 25.464844 C 19.796875 26.785156 19.792969 26.792969 19.488281 27.945312 C 19.726562 28.398438 20 28.828125 20.304688 29.238281 C 20.570312 29.5625 20.855469 29.871094 21.152344 30.164062 L 21.464844 30.449219 C 21.894531 30.796875 22.347656 31.109375 22.824219 31.386719 Z M 18.75 22.53125 C 19.40625 23.625 19.410156 23.628906 20.300781 24.855469 C 21.773438 24.585938 21.773438 24.585938 23.480469 24.277344 C 24.261719 22.613281 24.261719 22.613281 25.0625 20.972656 C 24.3125 19.671875 24.3125 19.671875 23.648438 18.519531 C 22.105469 18.613281 22.105469 18.613281 20.777344 18.78125 C 20.671875 18.828125 20.570312 18.875 20.476562 18.921875 C 20.148438 19.324219 19.851562 19.75 19.59375 20.199219 C 19.40625 20.558594 19.238281 20.925781 19.089844 21.296875 C 18.949219 21.703125 18.835938 22.113281 18.75 22.53125 Z M 17.582031 67.589844 L 8.75 54.976562 L 11.296875 53.195312 L 20.128906 65.808594 Z M 25.398438 62.121094 L 18.058594 51.644531 L 14.316406 54.261719 L 12.820312 52.128906 L 22.847656 45.109375 L 24.339844 47.246094 L 20.609375 49.859375 L 27.945312 60.335938 Z M 24.472656 43.96875 L 27.019531 42.1875 L 31.804688 49.019531 C 32.5625 50.101562 33.089844 50.785156 33.375 51.0625 C 33.84375 51.5 34.398438 51.734375 35.023438 51.757812 C 35.65625 51.785156 36.324219 51.546875 37.035156 51.050781 C 37.757812 50.542969 38.203125 50.015625 38.363281 49.460938 C 38.523438 48.910156 38.488281 48.390625 38.261719 47.914062 C 38.035156 47.425781 37.570312 46.6875 36.871094 45.691406 L 31.984375 38.714844 L 34.53125 36.929688 L 39.171875 43.554688 C 40.234375 45.070312 40.914062 46.1875 41.214844 46.910156 C 41.515625 47.632812 41.628906 48.332031 41.5625 49.023438 C 41.492188 49.710938 41.234375 50.402344 40.796875 51.089844 C 40.355469 51.78125 39.636719 52.472656 38.636719 53.171875 C 37.433594 54.015625 36.421875 54.515625 35.601562 54.675781 C 34.785156 54.832031 34.042969 54.8125 33.371094 54.621094 C 32.699219 54.433594 32.132812 54.132812 31.675781 53.726562 C 31.003906 53.121094 30.175781 52.109375 29.183594 50.699219 Z M 57.429688 39.699219 L 54.65625 41.640625 L 51.546875 39.542969 L 46.503906 43.074219 L 47.472656 46.667969 L 44.769531 48.558594 L 40.847656 32.507812 L 43.542969 30.621094 Z M 49.242188 37.992188 L 44.226562 34.527344 L 45.800781 40.402344 L 49.246094 37.992188 Z M 58.804688 38.734375 L 49.972656 26.121094 L 52.449219 24.386719 L 63.511719 29.195312 L 57.613281 20.773438 L 59.980469 19.117188 L 68.816406 31.726562 L 66.257812 33.519531 L 55.410156 28.851562 L 61.171875 37.078125 Z M 66.628906 23.976562 C 65.730469 22.691406 65.164062 21.476562 64.9375 20.335938 C 64.777344 19.496094 64.765625 18.628906 64.902344 17.785156 C 65.042969 16.929688 65.320312 16.167969 65.738281 15.511719 C 66.292969 14.625 67.082031 13.828125 68.109375 13.105469 C 69.96875 11.804688 71.859375 11.339844 73.78125 11.714844 C 75.707031 12.082031 77.386719 13.296875 78.824219 15.347656 C 80.25 17.386719 80.8125 19.367188 80.511719 21.292969 C 80.207031 23.214844 79.128906 24.828125 77.28125 26.125 C 75.402344 27.4375 73.507812 27.910156 71.601562 27.542969 C 69.691406 27.171875 68.035156 25.980469 66.628906 23.976562 Z M 69.195312 22.054688 C 70.195312 23.480469 71.285156 24.332031 72.457031 24.609375 C 73.636719 24.882812 74.730469 24.664062 75.746094 23.953125 C 76.761719 23.242188 77.339844 22.296875 77.476562 21.105469 C 77.613281 19.917969 77.171875 18.597656 76.148438 17.132812 C 75.136719 15.6875 74.0625 14.832031 72.933594 14.5625 C 71.800781 14.296875 70.707031 14.53125 69.660156 15.265625 C 68.609375 16 68.015625 16.953125 67.875 18.125 C 67.738281 19.289062 68.175781 20.601562 69.195312 22.054688 Z M 69.195312 22.054688 "/>
        
        <!-- CAMADA 4: Parte Vermelha -->
        <path style=" stroke:none;fill-rule:evenodd;fill:rgb(100%,0%,0%);fill-opacity:1;" d="M 84 83.042969 C 80.402344 84.648438 76.84375 85.527344 74.378906 86.347656 C 73.175781 86.75 71.828125 87.082031 70.394531 87.410156 L 70.394531 33.070312 L 84 23.546875 Z M 56.785156 91.988281 C 54.3125 93.464844 51.976562 95.460938 49.984375 98.277344 C 48.039062 95.414062 45.695312 93.394531 43.179688 91.914062 L 43.179688 52.117188 L 56.785156 42.59375 Z M 29.574219 87.40625 C 28.132812 87.078125 26.785156 86.75 25.585938 86.347656 C 23.125 85.527344 19.5625 84.648438 15.964844 83.042969 L 15.964844 71.167969 L 29.574219 61.640625 Z M 29.574219 87.40625 "/>
    </g>
</svg>